<?xml version="1.0" encoding="iso-8859-1"?>
<!-- Generator: Adobe Illustrator 17.1.0, SVG Export Plug-In . SVG Version: 6.00 Build 0)  -->
<!DOCTYPE svg PUBLIC "-//W3C//DTD SVG 1.1//EN" "http://www.w3.org/Graphics/SVG/1.1/DTD/svg11.dtd">
<svg version="1.1" id="Capa_1" xmlns="http://www.w3.org/2000/svg" xmlns:xlink="http://www.w3.org/1999/xlink" x="0px" y="0px"
	 viewBox="0 0 213.687 213.687" style="enable-background:new 0 0 213.687 213.687;" xml:space="preserve">
<path d="M187.65,75.242l-1.111-4.742c-1.09-4.664-4.351-8.617-8.723-10.575l-63.197-28.312l8.85-24.941
	c0.706-1.988,0.087-4.206-1.546-5.542c-1.633-1.335-3.928-1.502-5.738-0.417L85.459,19.147
	c-15.252,9.151-27.053,22.536-34.126,38.708c-6.832,15.618-10.386,31.512-10.565,47.241c-0.309,27.202,5.713,47.038,10.265,58.086
	h-8.907c-2.761,0-5,2.239-5,5v15.252h-6.496c-2.761,0-5,2.239-5,5v20.252c0,2.761,2.239,5,5,5h140.425c2.762,0,5-2.239,5-5v-20.252
	c0-2.761-2.238-5-5-5h-6.496v-15.252c0-2.761-2.238-5-5-5h-15.224l0.594-1.801c2.736-8.302,1.841-17.428-2.456-25.039l-21.041-37.27
	l2.82,0.931c1.213,0.4,2.474,0.603,3.748,0.603c3.487,0,6.792-1.515,9.068-4.156c1.858-2.157,4.559-3.395,7.407-3.395
	c1.078,0,2.145,0.178,3.168,0.529l15.056,5.163c1.616,0.555,3.302,0.835,5.008,0.835c4.333,0,8.493-1.835,11.413-5.037l4.9-5.374
	C187.454,85.409,188.81,80.202,187.65,75.242z"/>
<g>
</g>
<g>
</g>
<g>
</g>
<g>
</g>
<g>
</g>
<g>
</g>
<g>
</g>
<g>
</g>
<g>
</g>
<g>
</g>
<g>
</g>
<g>
</g>
<g>
</g>
<g>
</g>
<g>
</g>
</svg>
