<svg version="1.1" id="Icons" xmlns="http://www.w3.org/2000/svg" xmlns:xlink="http://www.w3.org/1999/xlink" x="0px" y="0px"
	 viewBox="0 0 32 32" style="enable-background:new 0 0 32 32;" xml:space="preserve">
<style type="text/css">
	.st0{fill:none;stroke:#000000;stroke-width:1;stroke-linecap:round;stroke-linejoin:round;stroke-miterlimit:10;}
	.st1{fill:none;stroke:#000000;stroke-width:1;stroke-linejoin:round;stroke-miterlimit:10;}
	.st2{fill:none;stroke:#000000;stroke-width:1;stroke-linecap:round;stroke-miterlimit:10;}
	path, polygon {stroke: white !important;}
</style>
<path class="st0" d="M27.8,28.2L27.8,28.2c-1.3,1.3-3.3,1.3-4.6,0L17,22l4.6-4.6l6.2,6.2C29.1,24.8,29.1,26.9,27.8,28.2z"/>
<polygon class="st0" points="6.2,3.5 3.2,6.6 5.5,10.5 9.3,12.8 17.8,21.3 20.9,18.2 12.4,9.7 10.1,5.8 "/>
<path class="st1" d="M18.9,16.1l2.7-2.7c1.9,0.7,4.2,0.4,5.7-1.2c1.5-1.5,1.9-3.8,1.2-5.7l-2.6,2.6l-2.4-0.6l-0.6-2.4l2.6-2.6
	c-1.9-0.7-4.2-0.4-5.7,1.2c-1.5,1.5-1.9,3.8-1.2,5.7l-2.7,2.7"/>
<path class="st1" d="M12.7,16.3l-2.3,2.3c-1.9-0.7-4.2-0.4-5.7,1.2c-1.5,1.5-1.9,3.8-1.2,5.7l2.6-2.6l2.4,0.6l0.6,2.4l-2.6,2.6
	c1.9,0.7,4.2,0.4,5.7-1.2c1.5-1.5,1.9-3.8,1.2-5.7l2.4-2.4"/>
</svg>
