<svg xmlns="http://www.w3.org/2000/svg" viewBox="0 0 450.99 428.41"><defs><style>.cls-1{fill:#f79a3f;}.cls-2{fill:#f79c43;}.cls-3{fill:#f4844b;}.cls-4{fill:#f27355;}.cls-5{fill:#f89e41;}.cls-6{fill:#f37b50;}.cls-7{fill:#f58b48;}.cls-8{fill:#cc634e;}.cls-9{fill:#dd744b;}.cls-10{fill:#f69144;}.cls-11{fill:#e1794b;}.cls-12{fill:#d26a4d;}.cls-13{fill:#f6994a;}.cls-14{fill:#c45c4f;}.cls-15{fill:#d86f4c;}.cls-16{fill:#f69543;}.cls-17{fill:#e67f4a;}.cls-18{fill:#f58d48;}.cls-19{fill:#ee874a;}.cls-20{fill:#bd5551;}</style></defs><title>d3</title><g id="Layer_2" data-name="Layer 2"><g id="Layer_1-2" data-name="Layer 1"><path class="cls-1" d="M450.41,307.33a119.18,119.18,0,0,1-16.11,54.48c-21.17,36.82-53.28,58.39-95,65.08-12.05,1.93-24.56.94-36.85,1.3a40.29,40.29,0,0,0-3.41-4.7c-7.82-8.1-15.73-16.11-23.6-24.16,1-2.14,1.46-4.77,3-6.36,10.24-10.54,20.73-20.82,31.06-31.26,3-3.06,5.6-6.57,8.72-9.51,5.53-5.21,11.5-9.95,16.92-15.27,2-1.95,2.91-5,4.31-7.52,15.46-11,20.53-25.75,15.72-44,2-1.11,4-2.08,5.86-3.37a28.26,28.26,0,0,0,3.47-3.37c6.29-6.24,12.75-12.33,18.82-18.78,4.67-5,6.7-5.69,12.67-2.9a8.72,8.72,0,0,0,2.44.35c1.36,1.2,2.8,2.33,4.09,3.61q21.56,21.51,43.11,43A35.15,35.15,0,0,0,450.41,307.33Z"/><path class="cls-2" d="M212.27,335.32c-16.6,25.13-38.06,45.28-63.6,61-37.74,23.21-78.91,33.74-123.2,31.89,2.16-2.26,4-6,6.54-6.51,6.53-1.3,7.74-7.82,12.33-10.86,1.52-1,2.6-3.53,2.83-5.48.81-6.8,1.1-7.16,7.58-5.23a57.78,57.78,0,0,1,3.89-5c2.24-2.35,4.66-4.54,7.07-6.72,2.57-2.32,5.75-4.17,7.7-6.91,2.3-3.24,3.57-7.21,4.75-9.72,3.13-.82,5.7-.77,7.2-2,5-4.1,10-8.27,14.08-13.18,2.7-3.24,6-6.15,6.92-11.12.83-4.46,6.12-5.65,9.86-8,6.18-4,11-10,16.5-15.07,3.14-2.92,6.81-5.37,9.54-8.62,2.47-2.95,8.1-4.53,5.53-10.4-.25-.56,1.06-2.42,2-2.76,10.35-3.86,10.37-3.81,9.7-14.71,0-.5,0-1,0-1.5,1.36,1.2,2.79,2.32,4.08,3.6q22,22,44,44A38.4,38.4,0,0,0,212.27,335.32Z"/><path class="cls-3" d="M207.79,87.17c12.07,14.84,20.88,31.58,27.37,49.42,4.23,11.62,6.91,23.81,10.28,35.75l.57,2c.09.67.18,1.33.26,2-1.55.79-3.38,1.28-4.6,2.42-2.29,2.14-4.06,4.81-6.32,7-12.08,11.58-24.27,23-36.35,34.62-2.13,2.05-3.74,4.65-5.85,6.72-11.6,11.39-23.46,22.52-34.84,34.11-3.83,3.9-7.38,7.73-12.84,9.14l-2.26-.11a14.65,14.65,0,0,1,.68-3.86c18.1-37.88,15.53-75-3.82-111.62-.39-.73-.65-1.53-1-2.29,2.3-1.05,5.1-1.58,6.81-3.24,5.67-5.51,10.79-11.58,16.41-17.14,10.08-10,20.41-19.74,30.55-29.67C197.94,97.42,202.83,92.25,207.79,87.17Z"/><path class="cls-4" d="M67.32,98.18C45.23,93,22.69,94.8,0,94.35V.81c47.14-2.68,93.2.29,135.53,24.35-1.07,1.61-1.9,3.47-3.26,4.79-7,6.71-14.13,13.19-21,20-2.23,2.19-3.44,5.43-5.73,7.54-3.14,2.9-7,5-10.27,7.79-1.65,1.44-2.58,3.72-3.75,5.67-.65,1.1-.83,2.66-1.73,3.4-5.41,4.49-10.86,8.94-16.51,13.11C69.56,90.19,67,93.32,67.32,98.18Z"/><path class="cls-5" d="M143.21,270.21l2.26.11,14,14c0,.5,0,1,0,1.5.67,10.9.65,10.85-9.7,14.71-.92.34-2.23,2.2-2,2.76,2.57,5.87-3.06,7.45-5.53,10.4-2.73,3.25-6.4,5.7-9.54,8.62-5.48,5.08-10.32,11.11-16.5,15.07-3.74,2.39-9,3.58-9.86,8-.92,5-4.22,7.88-6.92,11.12-4.09,4.91-9.12,9.08-14.08,13.18-1.5,1.24-4.07,1.19-7.2,2-1.18,2.51-2.45,6.48-4.75,9.72-2,2.74-5.13,4.59-7.7,6.91-2.41,2.18-4.83,4.37-7.07,6.72a57.78,57.78,0,0,0-3.89,5c-6.48-1.93-6.77-1.57-7.58,5.23-.23,1.95-1.31,4.47-2.83,5.48-4.59,3-5.8,9.56-12.33,10.86-2.51.5-4.38,4.25-6.54,6.51H.1v-94c2,0,3.91.06,5.83,0,17-.6,34.11.18,50.81-2.17,29.75-4.19,53.85-19.41,72.62-42.84C134.25,283.09,138.61,276.55,143.21,270.21Z"/><path class="cls-6" d="M67.32,98.18c-.31-4.86,2.24-8,6-10.74,5.65-4.17,11.1-8.62,16.51-13.11.9-.74,1.08-2.3,1.73-3.4,1.17-2,2.1-4.23,3.75-5.67,3.23-2.83,7.13-4.89,10.27-7.79,2.29-2.11,3.5-5.35,5.73-7.54,6.87-6.79,14-13.27,21-20,1.36-1.32,2.19-3.18,3.26-4.79,12,7.75,24.44,14.82,35.74,23.43a163.16,163.16,0,0,1,36.52,38.58c-5,5.08-9.85,10.25-14.92,15.22-10.14,9.93-20.47,19.67-30.55,29.67-5.62,5.56-10.74,11.63-16.41,17.14-1.71,1.66-4.51,2.19-6.81,3.24-5.55-7-10.72-14.29-16.73-20.84a111.35,111.35,0,0,0-50-31.44C70.66,99.63,69,98.84,67.32,98.18Z"/><path class="cls-7" d="M159.47,284.33l-14-14c5.46-1.41,9-5.24,12.84-9.14,11.38-11.59,23.24-22.72,34.84-34.11,2.11-2.07,3.72-4.67,5.85-6.72,12.08-11.58,24.27-23,36.35-34.62,2.26-2.17,4-4.84,6.32-7,1.22-1.14,3.05-1.63,4.6-2.42,1.29,14.37,3.73,28.75,3.64,43.12-.21,33.66-8.94,65.42-24.77,95.13-3.81,7.17-8.55,13.84-12.87,20.74a38.4,38.4,0,0,1-4.69-3.43q-22.07-21.93-44-44C162.26,286.65,160.83,285.53,159.47,284.33Z"/><path class="cls-8" d="M300.46,94.21c-13.09.07-26.18.21-39.26.14a5.43,5.43,0,0,1-4-2c-2.82-4.46-5.27-9.16-7.86-13.77,6.05-5.94,12.17-11.81,18.14-17.84,4.85-4.9,9.4-10.1,14.29-15,6.17-6.14,12.55-12.06,18.84-18.09,7.81-7.48,15.67-14.92,23.39-22.51,1.17-1.16,1.65-3,2.45-4.58A107.67,107.67,0,0,1,376.59,14c-.82,1.72-1.27,3.81-2.54,5.09-3.91,4-8.16,7.58-12.22,11.4C355,37,348,43.33,341.35,50c-9.42,9.47-18.58,19.18-27.86,28.78C311.34,81,309,83.07,307,85.44,304.64,88.23,302.62,91.28,300.46,94.21Z"/><path class="cls-9" d="M433.79,66.66C441,77.55,444.15,90,447.55,102.31c-3.69,2.66-7.78,4.91-11,8.07-6.82,6.76-13,14.15-19.74,21-9,9.15-18.36,17.95-27.46,27-5.94,5.92-11.64,12.06-17.52,18-6.13,6.22-12.17,12.54-18.59,18.46-2.84,2.61-6.5,4.33-9.79,6.46l-34-33.84c5.15-.16,10.35,0,15.45-.55,12.9-1.46,21.93-8.79,28.46-19.62,3.2-2.68,6.56-5.2,9.57-8.07q16.11-15.39,32-31,16.81-16.58,33.35-33.45C430.6,72.51,432,69.4,433.79,66.66Z"/><path class="cls-10" d="M398.47,257.33A8.72,8.72,0,0,1,396,257c-6-2.79-8-2.08-12.67,2.9-6.07,6.45-12.53,12.54-18.82,18.78a28.26,28.26,0,0,1-3.47,3.37c-1.84,1.29-3.9,2.26-5.86,3.37-3.39-4.89-6.21-10.34-10.3-14.54-6.67-6.86-15.42-9.55-25-9.53-11.63,0-23.26,0-35.62,0,1.1-7,2.12-13.51,3.14-20,1.29-.2,2.95,0,3.81-.67,4.28-3.6,8.52-7.27,12.45-11.24,9.52-9.6,18.87-19.36,28.24-29.1,2.27-2.36,4.3-2.62,6.85-.28,1.23,1.12,3.1,1.54,4.68,2.28,6.74,6.58,13.44,13.2,20.25,19.71a37,37,0,0,0,4.72,3.33c.29.75.38,1.71.9,2.23q14,13.92,28.12,27.74Z"/><path class="cls-11" d="M368.45,225.36a37,37,0,0,1-4.72-3.33c-6.81-6.51-13.51-13.13-20.25-19.71q0-.49,0-1c3.29-2.13,6.95-3.85,9.79-6.46,6.42-5.92,12.46-12.24,18.59-18.46,5.88-6,11.58-12.11,17.52-18,9.1-9.06,18.45-17.86,27.46-27,6.74-6.84,12.92-14.23,19.74-21,3.19-3.16,7.28-5.41,11-8.07,4,15.2,4.28,30.55,2,46-2.26,1.22-4.91,2-6.68,3.74-6.49,6.28-12.59,13-19,19.32-8.21,8.13-16.6,16.07-24.88,24.13Q383.7,210.41,368.45,225.36Z"/><path class="cls-12" d="M300.46,94.21c2.16-2.93,4.18-6,6.52-8.77,2-2.37,4.36-4.41,6.51-6.64,9.28-9.6,18.44-19.31,27.86-28.78C348,43.33,355,37,361.83,30.48c4.06-3.82,8.31-7.44,12.22-11.4,1.27-1.28,1.72-3.37,2.54-5.09,13.89,4.45,24.56,13.67,34.83,23.48-.29,1.23-.18,2.85-.94,3.63-4.1,4.24-8.42,8.27-12.66,12.38C391,60.12,384.1,66.73,377.27,73.39S363.41,87,356.54,93.8a16.63,16.63,0,0,0-3.35,4.25,8.79,8.79,0,0,1-8.19,5.44c-9.11-7.4-19.7-9.61-31.15-9.1C309.4,94.59,304.93,94.29,300.46,94.21Z"/><path class="cls-13" d="M275.47,399.33c7.87,8.05,15.78,16.06,23.6,24.16a40.29,40.29,0,0,1,3.41,4.7l-92,.18c-12.78,0-25.55,0-38.72-.89l10.28-7.31a251,251,0,0,0,57.21-56.07,6.56,6.56,0,0,1,1.12-1,83.92,83.92,0,0,0,5.47,7.77c1.93,2.22,4.45,3.92,6.58,6C260.15,384.33,267.8,391.84,275.47,399.33Z"/><path class="cls-14" d="M326.46.58c-.8,1.54-1.28,3.42-2.45,4.58-7.72,7.59-15.58,15-23.39,22.51-6.29,6-12.67,11.95-18.84,18.09-4.89,4.86-9.44,10.06-14.29,15-6,6-12.09,11.9-18.14,17.84L218.57,39.29A35.25,35.25,0,0,0,223,36.21c4.76-4.49,9.31-9.19,14.09-13.66,5.88-5.49,12-10.73,17.8-16.3,1.58-1.52,2.38-3.84,3.54-5.79Z"/><path class="cls-15" d="M345,103.49a8.79,8.79,0,0,0,8.19-5.44,16.63,16.63,0,0,1,3.35-4.25q10.31-10.26,20.73-20.41c6.83-6.66,13.7-13.27,20.55-19.91,4.24-4.11,8.56-8.14,12.66-12.38.76-.78.65-2.4.94-3.63,9.06,8.51,16.83,18,22.37,29.19-1.79,2.74-3.19,5.85-5.44,8.15Q411.87,91.73,395,108.26q-15.87,15.63-32,31c-3,2.87-6.37,5.39-9.57,8.07,4.57-11.44,5-22.82-1.15-33.81C350.27,109.93,347.44,106.81,345,103.49Z"/><path class="cls-16" d="M275.47,399.33c-7.67-7.49-15.32-15-23-22.45-2.13-2.06-4.65-3.76-6.58-6a83.92,83.92,0,0,1-5.47-7.77c5.44-8.75,10.75-17.58,16.46-26.14,1-1.5,3.69-2.62,5.61-2.64,18-.2,35.93-.3,53.89,0a49.82,49.82,0,0,0,23.13-4.9c-1.4,2.54-2.33,5.57-4.31,7.52-5.42,5.32-11.39,10.06-16.92,15.27-3.12,2.94-5.69,6.45-8.72,9.51-10.33,10.44-20.82,20.72-31.06,31.26C276.93,394.56,276.45,397.19,275.47,399.33Z"/><path class="cls-17" d="M368.45,225.36q15.27-14.93,30.53-29.84c8.28-8.06,16.67-16,24.88-24.13,6.41-6.35,12.51-13,19-19.32,1.77-1.72,4.42-2.52,6.68-3.74-2.34,21.16-10.09,40.24-22.32,57.54-5.89,8.34-5.94,8.27-.24,16.43,1.52,2.17,2.81,4.5,4.2,6.76-.79.23-1.81.23-2.35.73-7.35,6.9-15,13.53-21.77,21-2.9,3.2-5.39,5.12-9.59,4.56q-14.07-13.86-28.12-27.74C368.83,227.07,368.74,226.11,368.45,225.36Z"/><path class="cls-18" d="M343.48,201.33q0,.49,0,1c-1.58-.74-3.45-1.16-4.68-2.28-2.55-2.34-4.58-2.08-6.85.28-9.37,9.74-18.72,19.5-28.24,29.1-3.93,4-8.17,7.64-12.45,11.24-.86.72-2.52.47-3.81.67,0-16.57.38-33.15,0-49.7-.2-7.9-1.86-15.75-2.92-24.14h25Z"/><path class="cls-19" d="M397.47,255.33c4.2.56,6.69-1.36,9.59-4.56,6.75-7.45,14.42-14.08,21.77-21,.54-.5,1.56-.5,2.35-.73,10.05,14.5,15.56,30.83,18,48,1.42,9.93.87,20.14,1.2,30.23a35.15,35.15,0,0,1-4.74-3.36q-21.6-21.47-43.11-43c-1.29-1.28-2.73-2.41-4.09-3.61Z"/><path class="cls-20" d="M258.46.46c-1.16,2-2,4.27-3.54,5.79-5.8,5.57-11.92,10.81-17.8,16.3C232.34,27,227.79,31.72,223,36.21a35.25,35.25,0,0,1-4.46,3.08C206,28.65,193.51,18,180.88,7.42c-2.78-2.32-6-4.16-10-7Z"/><path class="cls-7" d="M246,174.33l-.57-2Z"/></g></g></svg>