<?xml version="1.0" encoding="iso-8859-1"?>
<!-- Generator: Adobe Illustrator 16.0.0, SVG Export Plug-In . SVG Version: 6.00 Build 0)  -->
<!DOCTYPE svg PUBLIC "-//W3C//DTD SVG 1.1//EN" "http://www.w3.org/Graphics/SVG/1.1/DTD/svg11.dtd">
<svg version="1.1" id="Capa_1" xmlns="http://www.w3.org/2000/svg" xmlns:xlink="http://www.w3.org/1999/xlink" x="0px" y="0px"
	 width="33.645px" height="33.646px" viewBox="0 0 33.645 33.646" style="enable-background:new 0 0 33.645 33.646;"
	 xml:space="preserve">
<g>
	<path d="M26.534,24.821c0.097,1.509-1.122,3.525-1.521,5.696c-0.061,0.326-0.812,0.072-0.854,0.427
		c-0.042,0.354,0.586,1.496,0.624,1.818c0.038,0.326-0.95,0.211-0.95,0.211L23.68,33.22h-0.418l-0.268-0.799
		c0,0-1.979-0.228-2.056,0.114s-0.285,0.076-1.332,0.685c-1.047,0.609-4.854,0.419-6.32,0.308c-0.693-0.057-1.76-0.559-2.437-0.688
		c-0.753-0.141-1.087,0.095-1.217,0.116c-0.248,0.038-0.824-0.312-0.952-0.611c-0.128-0.297-1.049-2.306-0.533-2.511
		c0.515-0.205,2.322-0.896,2.398-1.143c0.077-0.249-0.53-1.763-0.978-1.87c-0.449-0.109-1.183-0.827-1.477-1.023
		c-0.285-0.19,0.048-0.619-0.019-1.048C8,24.298,7.684,23.93,7.996,23.817c0.606-0.224,1.934-0.712,3.94-1.43
		c0.699-0.249,1.923-0.036,2.531-0.266c0.639-0.24,0.647-0.92,0.762-1.142c0.38-0.742-0.019-1.144,0.209-2.02
		c0.303-1.16,1.382-2.075,1.468-3.15c0.057-0.704-1.507-3.188-2.211-3.454c-0.328-0.124-1.535-0.074-2.588-0.134
		c-1.205-0.069-2.261-0.243-2.474-0.277C9.232,11.88,7.11,10.453,7.11,10.453s0.077,0.665-0.19,0.875
		c-0.267,0.209-0.18-0.832-0.37-0.576c-0.19,0.254-0.191,0.234-0.325,0.435c-0.133,0.199,0.191,1.027,0.048,1.161
		c-0.143,0.132-0.202-0.31-0.202-0.31s-0.083,0.376-0.198,0.214c-0.114-0.162-0.199-0.938-0.199-0.938s-0.191,0.69-0.295,0.499
		c-0.105-0.188,0.125-0.685,0.125-0.685s0.894-1.663,1.388-1.674c0.496-0.012,2.723,1.302,4.436,1.34
		c1.714,0.039,1.637-0.342,3.597-0.419c-0.361-0.323-0.362-0.669-0.343-1.028c0.02-0.359-0.589-0.673-0.608-1.83
		c-0.019-1.157,1.646-1.529,2.241-1.524S17.239,6.278,17.4,6.59c0.229,0.436,0.552,0.493,0.819,0.551
		c0.195,0.041-0.152,0.38-0.152,0.38l0.494,0.742c0,0,0.143,0.276-0.181,0.42c-0.323,0.142-0.849,0.244-0.967,0.279
		c-0.119,0.035-0.185,0.368,0.032,0.615c0.141,0.162,0.754,0.999,1.059,0.609c0.099-0.126,0.286-0.566,0.49-1.126
		c0.141-0.38,0.451-0.766,0.584-1.197c0.274-0.875,0.326-1.772,0.297-2.064c-0.043-0.398-0.619-2.386-1.296-3.398
		c-0.229-0.342-1.271-0.359-1.357-0.355C17,2.055,16.35,2.111,16.323,1.891c-0.027-0.223,0.837-0.174,0.946-0.242
		c0.109-0.068-0.288-0.563-0.288-0.563S16.5,1.172,16.45,1.035c-0.049-0.136,0.371-0.251,0.371-0.251s-0.535-0.533-0.487-0.752
		c0.048-0.22,0.785,0.763,1.085,0.838c0.39,0.096,1.188,0.153,1.607,0.647c1.13,1.335,2.205,3.597,2.247,4.045
		c0.033,0.366-0.105,1.512-0.239,2.798c-0.138,1.342-0.703,2.21-0.685,2.836c0.008,0.287,0.208,0.496,0.438,0.914
		c0.323,0.59-0.343,0.933-0.399,3.752c-0.024,1.22,0.306,3.112,0.306,3.112s0.646-0.981,1.274-0.963
		c0.628,0.02,0.78-0.322,1.751-0.97c0.972-0.648,0.685-1.554,0.952-2.075c0.266-0.521,0.933-2.019,1.446-1.714
		c0.515,0.304,1.961,2.095,2.151,4.15c0.19,2.057-0.816,1.959-0.722,3.092C27.639,21.628,26.44,23.31,26.534,24.821z"/>
</g>
<g>
</g>
<g>
</g>
<g>
</g>
<g>
</g>
<g>
</g>
<g>
</g>
<g>
</g>
<g>
</g>
<g>
</g>
<g>
</g>
<g>
</g>
<g>
</g>
<g>
</g>
<g>
</g>
<g>
</g>
</svg>
