<svg xmlns="http://www.w3.org/2000/svg" viewBox="0 0 600.16 476.11"><defs><style>.cls-1{fill:#0181ca;}.cls-2{fill:#01affe;}.cls-3{fill:#01b0fe;}</style></defs><title>material-ui</title><g id="Layer_2" data-name="Layer 2"><g id="Layer_1-2" data-name="Layer 1"><path class="cls-1" d="M225.08,130.08l225-130V5q0,125.22,0,250.43c0,2.79-.19,4.86-3.1,6.54q-72.27,41.52-144.41,83.3c-.57.32-1.2.54-1.8.81a25.21,25.21,0,0,1-3.61-1.39c-14.23-8.14-28.46-16.26-42.63-24.5-9.56-5.56-19-11.31-28.52-17C241.53,294.16,257,285,272.51,276c33-19.09,66-38.08,98.92-57.24,1.57-.91,3.48-3,3.49-4.57.21-27.64.16-55.29.16-83.86-2.19,1.15-3.89,2-5.52,2.91q-69.36,40.07-138.72,80.12c-1.84,1.06-3.84,1.82-5.77,2.71Q225.09,173.08,225.08,130.08Z"/><path class="cls-2" d="M225.08,130.08v86c-5.81-3.15-11.71-6.18-17.44-9.48Q143.4,169.55,79.22,132.4c-1.12-.64-2.28-1.23-4-2.15v172.8c-1.86-.89-3.2-1.43-4.43-2.14q-33.51-19.35-67-38.68c-2.57-1.47-3.78-3-3.78-6.15q.15-126.49.08-253V0Z"/><path class="cls-1" d="M375.08,390.08q72.62-42,145.27-83.81c3.7-2.12,4.87-4.38,4.83-8.55-.21-25.32,0-50.65-.22-76,0-4,1.33-5.83,4.58-7.68,23.26-13.25,46.4-26.7,70.11-40.39.18,1.65.41,2.85.41,4q0,82.48.1,165a6.21,6.21,0,0,1-3.6,6.23Q488,411.47,379.54,474.15a42.57,42.57,0,0,1-4.47,2Q375.09,433.09,375.08,390.08Z"/><path class="cls-3" d="M375.08,390.08q0,43,0,86a45.82,45.82,0,0,1-4.46-2q-70.44-40.64-140.88-81.26c-3.39-1.95-4.8-4-4.76-8.11.22-25.48.09-50.95.15-76.42a28.48,28.48,0,0,1,.92-5.1c9.5,5.66,19,11.41,28.52,17,14.17,8.24,28.4,16.36,42.63,24.5a25.21,25.21,0,0,0,3.61,1.39,31.23,31.23,0,0,0,4.06,3.33Q339.93,369.8,375.08,390.08Z"/><path class="cls-1" d="M525.08,129.88c0-28.5,0-56.15.09-83.8a5.3,5.3,0,0,1,2.13-3.87Q562.87,21.46,598.58,1a6.59,6.59,0,0,1,1.5-.21v4.3c0,25.66-.06,51.31.07,77,0,3.34-.84,5.31-3.91,7-22.28,12.66-44.42,25.54-66.61,38.35C528.36,128.15,527.06,128.81,525.08,129.88Z"/></g></g></svg>